<svg width="24" height="24" viewBox="0 0 24 24" fill="none" xmlns="http://www.w3.org/2000/svg">
<path d="M7.05025 18.364L18.364 7.05025C18.7545 6.65973 18.7545 6.02656 18.364 5.63604C17.9734 5.24552 17.3403 5.24552 16.9497 5.63604L5.63604 16.9497C5.24551 17.3403 5.24551 17.9734 5.63604 18.364C6.02656 18.7545 6.65973 18.7545 7.05025 18.364Z" fill="#2E3A59"/>
<path d="M18.364 16.9497L7.05025 5.63604C6.65973 5.24552 6.02656 5.24551 5.63604 5.63604C5.24552 6.02656 5.24552 6.65973 5.63604 7.05025L16.9497 18.364C17.3403 18.7545 17.9734 18.7545 18.364 18.364C18.7545 17.9734 18.7545 17.3403 18.364 16.9497Z" fill="#2E3A59"/>
</svg>
